<svg width="125" height="125" viewBox="0 0 125 125" fill="none" xmlns="http://www.w3.org/2000/svg">
<path d="M2.60417 33.8542C2.60417 26.6615 8.43229 20.8333 15.625 20.8333C22.8177 20.8333 28.6458 26.6615 28.6458 33.8542C28.6458 41.0469 22.8177 46.875 15.625 46.875C8.43229 46.875 2.60417 41.0469 2.60417 33.8542ZM46.875 106.771V119.792C46.875 122.667 44.5417 125 41.6667 125C38.7917 125 36.4583 122.667 36.4583 119.792V106.771C36.4583 105.333 35.2917 104.167 33.8542 104.167C33.8542 104.167 15.4427 104.167 15.3542 104.161C6.86458 104.016 0 97.0677 0 88.5417V67.7083C0 59.0938 7.01042 52.0833 15.625 52.0833C24.2396 52.0833 31.25 59.0938 31.25 67.7083V93.75H33.8542C41.0312 93.75 46.875 99.5938 46.875 106.771ZM20.8333 93.75V67.7083C20.8333 64.8385 18.4948 62.5 15.625 62.5C12.7552 62.5 10.4167 64.8385 10.4167 67.7083V88.5417C10.4167 91.4115 12.7552 93.75 15.625 93.75H20.8333ZM109.375 46.875C116.568 46.875 122.396 41.0469 122.396 33.8542C122.396 26.6615 116.568 20.8333 109.375 20.8333C102.182 20.8333 96.3542 26.6615 96.3542 33.8542C96.3542 41.0469 102.182 46.875 109.375 46.875ZM125 67.7083V88.5417C125 97.0677 118.135 104.016 109.646 104.161C109.557 104.161 91.1458 104.167 91.1458 104.167C89.7083 104.167 88.5417 105.333 88.5417 106.771V119.792C88.5417 122.667 86.2083 125 83.3333 125C80.4583 125 78.125 122.667 78.125 119.792V106.771C78.125 99.5938 83.9688 93.75 91.1458 93.75H93.75V67.7083C93.75 59.0938 100.76 52.0833 109.375 52.0833C117.99 52.0833 125 59.0938 125 67.7083ZM114.583 67.7083C114.583 64.8385 112.245 62.5 109.375 62.5C106.505 62.5 104.167 64.8385 104.167 67.7083V93.75H109.375C112.245 93.75 114.583 91.4115 114.583 88.5417V67.7083ZM83.3333 72.9167C83.3333 70.0417 81 67.7083 78.125 67.7083H46.875C44 67.7083 41.6667 70.0417 41.6667 72.9167C41.6667 75.7917 44 78.125 46.875 78.125H78.125C81 78.125 83.3333 75.7917 83.3333 72.9167ZM36.4583 26.2917V15.375C36.4583 6.89583 43.3542 0 51.8333 0H73.1667C81.6458 0 88.5417 6.89583 88.5417 15.375V26.2917C88.5417 34.276 82.4219 40.8594 74.625 41.599L67.3854 47.5938C65.9688 48.8594 64.1458 49.4948 62.2969 49.4948C60.4063 49.4948 58.5 48.8281 56.9792 47.474L49.7969 41.5312C42.276 40.5312 36.4583 34.0781 36.4583 26.2917ZM46.875 26.2917C46.875 29.026 49.099 31.25 51.8333 31.25C53.0469 31.25 54.2188 31.6719 55.1563 32.4427L62.2552 38.3177L69.349 32.4427C70.2812 31.6667 71.4583 31.2448 72.6719 31.2448H73.1719C75.9062 31.2448 78.1302 29.0208 78.1302 26.2865V15.3698C78.1302 12.6354 75.9062 10.4115 73.1719 10.4115H51.8385C49.1042 10.4115 46.8802 12.6354 46.8802 15.3698V26.2865L46.875 26.2917ZM20.8333 114.583H5.20833C2.33333 114.583 0 116.917 0 119.792C0 122.667 2.33333 125 5.20833 125H20.8333C23.7083 125 26.0417 122.667 26.0417 119.792C26.0417 116.917 23.7083 114.583 20.8333 114.583ZM119.792 114.583H104.167C101.292 114.583 98.9583 116.917 98.9583 119.792C98.9583 122.667 101.292 125 104.167 125H119.792C122.667 125 125 122.667 125 119.792C125 116.917 122.667 114.583 119.792 114.583Z" fill="#EB5E28"/>
</svg>
