<svg width="125" height="125" viewBox="0 0 125 125" fill="none" xmlns="http://www.w3.org/2000/svg">
<path d="M125 117.645L92.4289 85.0741C100.89 74.7264 105.049 61.5226 104.048 48.1939C103.047 34.8652 96.9604 22.4312 87.0484 13.464C77.1365 4.49671 64.1571 -0.317801 50.795 0.0162939C37.4329 0.350389 24.7103 5.80752 15.2589 15.2589C5.80752 24.7103 0.350389 37.4329 0.0162939 50.795C-0.317801 64.1571 4.49671 77.1365 13.464 87.0484C22.4312 96.9604 34.8652 103.047 48.1939 104.048C61.5226 105.049 74.7264 100.89 85.0741 92.4289L117.645 125L125 117.645ZM52.1804 93.7916C43.9505 93.7916 35.9054 91.3512 29.0625 86.7789C22.2196 82.2066 16.8862 75.7078 13.7367 68.1043C10.5873 60.5009 9.76325 52.1343 11.3688 44.0625C12.9744 35.9907 16.9375 28.5763 22.7569 22.7569C28.5763 16.9375 35.9907 12.9744 44.0625 11.3688C52.1343 9.76325 60.5009 10.5873 68.1043 13.7367C75.7078 16.8862 82.2066 22.2196 86.7789 29.0625C91.3512 35.9054 93.7916 43.9505 93.7916 52.1804C93.7792 63.2126 89.3912 73.7894 81.5903 81.5903C73.7894 89.3912 63.2126 93.7792 52.1804 93.7916Z" fill="#EB5E28"/>
</svg>
