<svg width="125" height="125" viewBox="0 0 125 125" fill="none" xmlns="http://www.w3.org/2000/svg">
<path d="M98.9583 10.4167H93.75V5.20833C93.75 2.33333 91.4167 0 88.5417 0C85.6667 0 83.3333 2.33333 83.3333 5.20833V10.4167H41.6667V5.20833C41.6667 2.33333 39.3333 0 36.4583 0C33.5833 0 31.25 2.33333 31.25 5.20833V10.4167H26.0417C11.6823 10.4167 0 22.099 0 36.4583V98.9583C0 113.318 11.6823 125 26.0417 125H98.9583C113.318 125 125 113.318 125 98.9583V36.4583C125 22.099 113.318 10.4167 98.9583 10.4167ZM26.0417 20.8333H98.9583C107.573 20.8333 114.583 27.8438 114.583 36.4583V41.6667H10.4167V36.4583C10.4167 27.8438 17.4271 20.8333 26.0417 20.8333ZM98.9583 114.583H26.0417C17.4271 114.583 10.4167 107.573 10.4167 98.9583V52.0833H114.583V98.9583C114.583 107.573 107.573 114.583 98.9583 114.583ZM83.3333 83.3333C83.3333 86.2083 81 88.5417 78.125 88.5417H46.875C44 88.5417 41.6667 86.2083 41.6667 83.3333C41.6667 80.4583 44 78.125 46.875 78.125H78.125C81 78.125 83.3333 80.4583 83.3333 83.3333Z" fill="#EB5E28"/>
</svg>
