<svg width="492" height="428" viewBox="0 0 492 428" fill="none" xmlns="http://www.w3.org/2000/svg">
<g clip-path="url(#clip0_923_4213)">
<path d="M164.499 197.43C165.459 194.799 167.036 187.907 167.036 187.907L159.931 185.797L157.66 196.166L161.555 200.655L164.499 197.43Z" fill="#EFAEA6"/>
<path d="M165.354 196.442C166.152 196.489 165.625 197.104 165.56 198.308C165.41 201.062 174.73 203.964 176.069 204.624C176.761 204.963 176.787 209.089 173.175 207.978C170.049 207.016 160.029 203.975 156.616 202.9C155.903 202.676 155.424 202.001 155.463 201.254C155.6 198.589 156.937 194.797 157.916 195.004C159.5 194.981 162.036 196.245 165.357 196.445L165.354 196.442Z" fill="#1F1F39"/>
<path d="M177.336 13.5443C178.086 12.3038 178.431 11.4522 179.646 9.96459C180.822 8.52428 181.246 7.81201 181.722 5.83553C182.046 4.49773 185.167 -0.76938 186.475 0.0953302C187.98 1.0862 188.051 3.91425 187.385 4.73953C185.843 6.64505 186.69 7.63329 187.161 9.0552C187.572 10.2905 185.604 9.24707 183.864 11.9358C182.822 13.5496 183.638 13.1685 182.988 13.6863C182.338 14.204 177.336 13.547 177.336 13.547V13.5443Z" fill="#EFAEA6"/>
<path d="M235.838 147.964C234.807 145.36 231.407 139.162 231.407 139.162L224.689 142.292L229.881 151.555L235.778 152.33L235.838 147.964Z" fill="#EFAEA6"/>
<path d="M235.823 146.655C236.452 146.163 236.465 146.97 237.217 147.914C238.936 150.074 247.835 146.066 249.274 145.672C250.016 145.467 252.779 148.537 249.337 150.101C246.361 151.454 236.844 155.82 233.578 157.281C232.894 157.586 232.089 157.399 231.621 156.816C229.952 154.732 228.431 151.01 229.302 150.516C230.471 149.449 233.207 148.713 235.823 146.66V146.655Z" fill="#1F1F39"/>
<path d="M235.577 143.781C235.025 144.12 234.491 144.43 233.972 144.722C231.136 146.328 228.891 147.313 227.415 147.884C226.128 148.378 225.426 148.559 225.426 148.559C221.387 143.466 212.061 119.743 203.52 112.891C202.181 111.816 196.31 110.888 188.871 111.298C179.438 111.816 169.213 112.901 168.618 112.964C168.6 112.964 168.592 112.964 168.592 112.964C168.608 113.051 168.629 113.138 168.644 113.227V113.232C168.658 113.285 168.665 113.335 168.668 113.387C169.565 125.054 171.66 141.14 172.005 153.606C171.363 166.397 170.605 190.026 169.9 191.14C169.194 192.255 166.521 192.034 166.039 192.026C162.824 191.979 160.214 191.708 158.709 191.372C157.659 191.132 156.588 190.347 156.801 190.097C157.306 183.108 161.15 157.643 159.414 151.172C158.914 149.3 158.511 147.779 156.49 142.916C153.904 136.682 150.52 128.734 147.481 120.952C147.015 119.761 146.56 118.576 146.118 117.401C144.657 113.532 143.331 109.781 142.284 106.386C141.739 104.622 141.268 102.956 140.9 101.421C140.86 101.258 141.047 101.024 141.415 100.735C143.502 99.0999 151.404 95.6831 157.122 93.3177C157.659 93.0943 158.177 92.8866 158.669 92.6843C161.398 91.5672 163.327 90.8076 163.327 90.8076L169.037 89.1387C169.739 89.9324 169.884 90.4134 171.102 90.7104C176.612 92.0587 205.204 94.2533 212.772 100.362C219.076 105.45 235.801 141.726 235.575 143.778L235.577 143.781Z" fill="#3B3B4C"/>
<path d="M139.188 53.0795L132.781 51.584C131.765 48.0673 130.779 42.0774 131.129 39.5017C131.513 36.6763 131.768 36.8156 131.768 36.8156L136.181 39.2389L138.257 40.3795C138.257 40.3795 138.06 41.5255 138.609 43.4179C138.994 44.7425 139.744 46.4299 141.178 48.3485C142.254 49.7836 139.186 53.0795 139.186 53.0795H139.188Z" fill="#EFAEA6"/>
<path opacity="0.14" d="M138.258 40.379C138.258 40.379 138.15 41.8114 138.697 43.7038C134.903 45.6172 132.506 42.7602 133.437 41.6274C134.019 40.9204 136.179 39.2383 136.179 39.2383L138.255 40.379H138.258Z" fill="#1F1F39"/>
<path d="M142.046 30.874C142.186 33.2657 144.657 37.8968 143.044 37.8495C141.431 37.8022 143.344 42.9011 141.625 42.9142C137.46 42.9458 132.739 40.1939 132.25 38.1754C131.761 36.1569 132.19 30.5586 132.19 30.5586L142.046 30.874Z" fill="#EFAEA6"/>
<path d="M137.701 33.0549C139.009 33.2415 139.043 33.5517 139.972 33.1311C140.904 32.7106 139.343 31.4043 141.067 31.1652C142.788 30.926 144.674 30.8682 144.901 28.9127C145.23 26.0847 142.704 26.4605 141.141 26.7496C140.135 26.9362 139.941 24.7574 137.938 24.7994C136.367 24.8336 136.528 25.7509 135.128 25.8429C134.283 25.8981 132.668 24.4683 131.328 25.4486C128.839 27.2674 130.82 29.6329 128.739 31.5883C126.313 33.8697 131.678 39.008 132.328 38.4219C133.089 37.7359 132.055 35.2811 132.818 34.7291C133.973 33.8986 134.089 34.8684 135.017 35.7857C136.009 36.7661 137.88 36.8712 136.723 34.9972C135.565 33.1232 136.515 32.8814 137.699 33.0523L137.701 33.0549Z" fill="#1F1F39"/>
<path d="M131.482 47.4051C133.553 45.7467 135.861 48.1805 137.805 47.434C138.984 46.982 138.476 45.9622 138.75 45.1606C138.919 44.6664 139.658 44.6402 140.603 44.2985C143.084 43.3996 165.713 88.2725 165.713 88.2725C165.713 88.2725 160.619 94.131 155.727 96.21C150.833 98.2916 141.481 100.336 140.9 98.5597C140.318 96.7856 128.08 51.9048 128.08 51.9048C128.08 51.9048 129.414 49.061 131.485 47.4051H131.482Z" fill="white"/>
<path opacity="0.55" d="M149.657 97.3789C149.652 101.863 151.936 107.416 144.144 112.016C142.684 108.147 143.376 109.401 142.286 106.394C141.658 104.659 141.271 102.967 140.9 101.429C140.86 101.266 141.047 101.032 141.415 100.743L149.657 97.3815V97.3789Z" fill="#1F1F39"/>
<path d="M140.543 44.3899C146.7 40.3239 158.175 36.6548 165.68 32.0579C169.743 29.5689 174.477 18.4197 178.923 8.73438C180.689 9.38619 183.957 11.0105 184.91 13.0868C181.978 22.0888 177.695 34.1448 171.243 38.9335C162.517 45.407 156.223 50.364 155.347 53.1106C153.521 58.8192 159.244 71.966 161.091 74.9254C162.938 77.8849 172.756 88.3928 171.674 92.0462C170.89 94.6955 161.849 97.8731 159.738 97.3974C155.26 96.3855 155.986 78.9205 152.558 70.8122C149.129 62.7012 150.218 61.5605 145.527 52.9187L140.546 44.3951L140.543 44.3899Z" fill="#0267A4"/>
<path opacity="0.55" d="M188.871 111.299C179.438 111.817 169.213 112.902 168.618 112.966L168.213 108.637C168.213 108.637 182.556 108.666 188.874 111.299H188.871Z" fill="#1F1F39"/>
<path d="M121.567 120.792C121.193 120.377 120.733 120.143 120.262 120.175L119.064 120.261H119.025L118.88 120.275L113.923 120.637C113.683 120.656 113.462 120.74 113.27 120.882C112.676 121.315 112.336 122.264 112.468 123.337L112.657 124.858L112.954 127.311L114.202 127.221L113.902 124.761L113.86 124.412C113.76 123.62 114.004 122.916 114.441 122.585C114.588 122.472 114.757 122.404 114.941 122.393L119.314 122.075H119.317L119.68 122.046C120.412 121.996 121.109 122.811 121.238 123.873L121.272 124.178L121.583 126.669V126.685L122.83 126.596L122.519 124.083L122.338 122.611C122.327 122.527 122.314 122.446 122.301 122.364C122.277 122.238 122.246 122.12 122.211 122.001C122.069 121.528 121.843 121.116 121.561 120.803L121.567 120.792Z" fill="#201B2C"/>
<path d="M117.871 113.515C118.3 114.968 118.619 114.527 119.437 116.372C120.255 118.217 122.255 120.687 121.345 121.089C120.434 121.494 119.508 120.43 119.003 120.251C118.498 120.072 119.745 121.071 119.324 122.054C118.903 123.037 116.579 123.836 115.369 123.237C114.159 122.637 113.164 121.258 112.806 119.365C112.448 117.473 112.935 114.795 112.985 113.94C113.035 113.089 117.871 113.515 117.871 113.515Z" fill="#EEADA5"/>
<path d="M121.572 120.782C121.201 120.364 120.735 120.128 120.262 120.159L119.067 120.259L119.033 120.264H119.03L118.943 120.272L119.112 120.674L119.117 120.682L119.125 120.703V120.708L119.375 121.289L119.685 122.028C120.417 121.975 121.117 122.795 121.246 123.857V123.87L121.285 124.175L121.59 126.664L122.832 126.572L122.527 124.075L122.346 122.603C122.335 122.519 122.322 122.438 122.309 122.356C122.285 122.23 122.254 122.112 122.219 121.994C122.083 121.515 121.854 121.1 121.575 120.787L121.572 120.782Z" fill="#201B2C"/>
<path d="M137.807 127.093L140.154 145.391C140.293 146.474 139.549 147.423 138.488 147.504L138.43 147.509L106.639 150.424C103.044 150.705 102.736 148.106 102.597 147.023L99.8788 129.803C99.7394 128.717 100.652 125.763 103.531 125.579L131.865 123.337L132.928 123.253C135.268 123.069 137.491 124.641 137.807 127.093Z" fill="#603A3E"/>
<path d="M137.806 127.093L140.153 145.391C140.293 146.474 139.548 147.423 138.488 147.504L138.43 147.509C137.922 146.455 137.469 144.765 137.298 142.048C136.882 135.482 134.101 128.223 131.867 123.337L132.93 123.253C135.269 123.069 137.493 124.641 137.809 127.093H137.806Z" fill="#775155"/>
<path d="M129.055 49.0765C129.831 48.4641 131.641 47.1999 131.654 47.221C132.275 48.3616 132.781 51.4552 133.999 55.1637C134.388 56.3438 134.817 57.5922 135.296 58.8722C136.78 62.8252 138.743 67.0699 141.424 70.4709C142.716 72.1057 143.608 73.8798 144.248 75.6802C144.74 77.0627 145.082 78.4609 145.34 79.8145C146.061 83.5966 146.129 87.0712 146.969 89.0898C148.021 91.6129 149.784 94.8326 150.016 97.6711C150.121 98.9222 149.926 100.102 149.24 101.114C147.003 104.421 144.256 107.84 141.672 108.713C139.822 109.336 130.183 112.122 131.875 108.721C134.515 103.406 134.986 96.1546 134.325 90.5196C134.088 88.501 133.709 86.6901 133.233 85.2498C133.233 85.2498 133.231 85.2367 133.228 85.2314C133.178 85.0763 133.128 84.9292 133.078 84.7846C133.049 84.6979 133.02 84.6111 132.988 84.527C132.962 84.4482 132.933 84.3746 132.907 84.2984C132.883 84.2353 132.862 84.1696 132.836 84.1091C132.796 84.004 132.76 83.9041 132.72 83.8042C132.704 83.7622 132.686 83.7201 132.67 83.6781C132.667 83.6702 132.662 83.6597 132.66 83.6518C132.641 83.6045 132.623 83.5572 132.604 83.5125C132.552 83.3863 132.502 83.2654 132.452 83.1551C132.428 83.1025 132.407 83.0526 132.383 83.0026C132.36 82.9527 132.339 82.9054 132.315 82.8581C132.302 82.8318 132.291 82.8081 132.281 82.7792C132.278 82.7713 132.273 82.7634 132.267 82.7529C132.257 82.7345 132.249 82.7135 132.241 82.6951C132.236 82.6898 132.233 82.6793 132.231 82.6741C132.215 82.6399 132.199 82.6084 132.181 82.5795C132.162 82.54 132.144 82.5032 132.123 82.4717C132.083 82.4007 132.046 82.3324 132.01 82.2667C131.931 82.1274 131.849 81.9907 131.765 81.8514C131.681 81.7121 131.596 81.5728 131.512 81.4309C131.346 81.1576 131.175 80.8842 130.999 80.6161C130.999 80.6082 130.991 80.6004 130.989 80.5951C130.889 80.4374 130.789 80.2823 130.686 80.1246C130.494 79.8276 130.299 79.5359 130.107 79.2468C130.039 79.1416 129.968 79.0365 129.897 78.9314C129.868 78.892 129.841 78.8499 129.812 78.8105C129.702 78.6423 129.589 78.4793 129.481 78.3137C129.41 78.2139 129.341 78.114 129.276 78.0141C129.168 77.859 129.065 77.704 128.963 77.5542C128.936 77.5147 128.91 77.4806 128.884 77.4411C128.82 77.3465 128.757 77.2519 128.694 77.1625C128.649 77.0968 128.605 77.0338 128.56 76.9707C128.518 76.905 128.473 76.8445 128.434 76.7814C128.392 76.7184 128.349 76.6605 128.31 76.6001C128.276 76.5501 128.242 76.5002 128.21 76.4503L128.189 76.4187C128.165 76.3819 128.139 76.3425 128.115 76.3057L128.086 76.2663C128.042 76.198 127.997 76.1296 127.952 76.0639C127.899 75.9851 127.849 75.9062 127.797 75.83C127.744 75.7511 127.694 75.6723 127.647 75.5961C127.639 75.5856 127.634 75.5777 127.631 75.5672C127.605 75.5251 127.576 75.4857 127.552 75.4436C127.528 75.4016 127.502 75.3621 127.478 75.3227C127.447 75.2728 127.418 75.2255 127.386 75.1782C127.36 75.1309 127.334 75.0862 127.307 75.0415C127.268 74.9758 127.228 74.9101 127.194 74.8496C127.176 74.8207 127.16 74.7892 127.144 74.7576C127.128 74.7261 127.115 74.6998 127.1 74.6683L127.092 74.6578C127.076 74.6236 127.057 74.5868 127.039 74.5553V74.5474C126.963 74.4028 126.913 74.2819 126.886 74.1794C126.881 74.1663 126.881 74.1505 126.878 74.14C126.134 75.1519 118.364 87.5312 117.914 95.0586C118.008 105.682 119.413 112.844 119.592 114.965C119.592 114.981 119.584 114.997 119.563 115C119.179 115.063 118.763 115.128 118.324 115.191C116.451 115.473 114.246 115.725 112.882 115.651C112.414 115.628 112.043 115.562 111.822 115.444C111.814 115.441 111.809 115.436 111.806 115.428C109.822 111.835 110.149 101.217 109.643 94.3674C109.228 88.756 114.732 73.7799 118.85 64.3838C119.448 63.0144 120.016 61.7712 120.534 60.6857C120.819 60.0865 121.166 59.4636 121.558 58.8302C124.86 53.4579 128.273 49.6942 129.047 49.0818L129.055 49.0765Z" fill="#0267A4"/>
<path opacity="0.28" d="M129.908 70.1667C131.063 72.222 132.542 80.5826 132.984 84.5224C132.958 84.4462 132.929 84.3726 132.903 84.2964C132.879 84.2333 132.855 84.1703 132.831 84.1072C132.776 83.9574 132.721 83.8128 132.668 83.6761C132.634 83.5894 132.6 83.5079 132.568 83.4265C132.529 83.3318 132.489 83.2372 132.45 83.1505C132.395 83.0191 132.337 82.8929 132.279 82.7746C132.26 82.7378 132.245 82.7037 132.229 82.6695C132.213 82.6353 132.197 82.6038 132.179 82.5749C132.124 82.4619 132.068 82.3567 132.013 82.2621C131.934 82.1228 131.85 81.9861 131.766 81.8468C131.682 81.7075 131.597 81.5682 131.513 81.4263C131.347 81.153 131.176 80.8796 131 80.6115C131 80.6037 130.992 80.5958 130.99 80.5905C130.89 80.4328 130.79 80.2777 130.687 80.1201C130.495 79.8231 130.3 79.5313 130.108 79.2422C129.827 78.819 129.548 78.4064 129.277 78.0122C129.169 77.8571 129.066 77.702 128.963 77.5522C128.937 77.5128 128.911 77.4786 128.884 77.4392C128.774 77.2789 128.669 77.1185 128.563 76.9687C128.521 76.903 128.477 76.8426 128.437 76.7795C128.395 76.7164 128.353 76.6586 128.313 76.5981C128.279 76.5482 128.245 76.4983 128.214 76.4483C128.206 76.4404 128.198 76.4299 128.192 76.4168C128.053 76.2118 127.921 76.012 127.8 75.8254C127.748 75.7466 127.698 75.6677 127.65 75.5915C127.642 75.581 127.637 75.5731 127.635 75.5626C127.545 75.4259 127.464 75.2971 127.39 75.171C127.319 75.0553 127.253 74.9449 127.198 74.8424C127.179 74.8135 127.164 74.782 127.148 74.7504C127.132 74.7215 127.116 74.6926 127.1 74.6637V74.6584L126.893 74.1722C127.645 72.4323 129.913 70.1641 129.913 70.1641L129.908 70.1667Z" fill="#1F1F39"/>
<path opacity="0.26" d="M138.844 48.617C138.567 48.8063 138.48 49.1506 138.423 49.4633C138.354 49.8523 138.338 50.1914 138.091 50.123C137.754 50.0416 136.765 54.7383 134.041 57.9685C133.168 59.0041 132.118 59.8898 130.855 60.4181C130.368 60.6231 129.834 60.8097 129.258 60.9832C128.047 61.3564 126.661 61.6744 125.198 61.9688C122.766 62.455 119.43 63.2067 119.43 63.2067C119.43 63.2067 120.709 60.3787 121.224 59.3116C121.508 58.7202 120.119 58.4968 120.509 57.8713C122.882 57.8213 125.153 57.8292 126.916 57.5874C127.8 57.4691 128.552 57.2878 129.129 57.0092C129.392 56.8804 129.644 56.7437 129.892 56.6018C130.981 55.9658 131.942 55.172 132.778 54.3047C134.373 52.6567 135.541 50.7381 136.383 49.1164C136.844 48.2254 136.807 47.9074 137.612 47.5105C137.62 47.5053 137.628 47.5026 137.633 47.5C138.191 47.9442 139.178 48.3857 138.844 48.6144V48.617Z" fill="#1F1F39"/>
<path d="M79.6645 77.2699C80.0618 78.1399 81.7064 79.2359 83.4694 79.3331C83.864 79.3542 84.864 79.1833 86.2138 78.8811C90.8792 77.8429 99.7362 75.2777 102.333 73.932C105.03 72.5311 107.099 70.0789 108.933 67.7555C110.811 65.3716 112.446 63.1244 114.264 62.2913C117.737 60.6933 125.978 60.1413 130.367 58.4881C130.512 58.4329 130.654 58.3804 130.791 58.3225C135.543 56.3329 137.24 49.0578 137.646 49.1682C137.927 49.2418 138.198 49.3206 138.525 49.2312C138.667 49.1918 138.819 49.1235 138.99 49.0052C139.377 48.7424 139.072 47.833 138.846 47.3389C138.622 46.8421 137.964 46.1456 136.951 46.5478C136.188 46.8526 136.251 47.2022 135.827 48.0117C134.793 49.9935 133.23 52.4693 130.907 54.1803C130.381 54.5667 129.815 54.9163 129.21 55.2106C126.202 56.672 117.874 55.1738 112.927 57.1635C112.469 57.3448 112.04 57.5577 111.648 57.8074C107.009 60.7406 107.283 66.0182 100.415 69.8108C93.5447 73.6008 84.4219 73.154 82.4063 74.3C80.3907 75.4459 79.2698 76.4 79.6645 77.2699Z" fill="#F4AD00"/>
<path d="M82.5145 242.787C69.7525 259.148 54.3987 279.315 56.6275 279.315C62.7374 279.315 83.046 279.431 83.046 279.431L82.5145 242.787Z" fill="#A7A9AC"/>
<path d="M134.919 207.352C122.157 223.713 106.803 243.88 109.032 243.88C115.142 243.88 135.45 243.995 135.45 243.995L134.919 207.352Z" fill="#A7A9AC"/>
<path d="M26.1063 280.348C13.3443 296.709 -2.00946 316.876 0.219275 316.876C6.32921 316.876 26.6378 316.991 26.6378 316.991L26.1063 280.348Z" fill="#A7A9AC"/>
<path d="M82.0279 242.913C78.502 246.664 80.6491 279.489 82.5595 279.557C90.014 279.817 142.685 281.21 143.03 278.285C144.275 267.716 144.064 241.449 140.962 241.365C132.349 241.126 85.1303 239.615 82.0279 242.913Z" fill="#D1D3D4"/>
<path d="M25.6197 280.474C22.0938 284.224 24.2409 317.049 26.1513 317.118C33.6058 317.378 86.2771 318.771 86.6218 315.845C87.8664 305.277 87.6559 279.01 84.5535 278.926C75.9412 278.687 28.7221 277.175 25.6197 280.474Z" fill="#D1D3D4"/>
<path d="M134.776 207.368C131.25 211.119 133.397 243.944 135.308 244.012C142.762 244.272 195.433 245.665 195.778 242.74C197.023 232.172 196.812 205.904 193.71 205.82C185.097 205.581 137.878 204.07 134.776 207.368Z" fill="#D1D3D4"/>
<path opacity="0.11" d="M254.396 423.178C254.396 425.41 282.096 428.001 314.014 428.001C345.932 428.001 371.806 426.193 371.806 423.962C371.806 421.73 345.932 419.922 314.014 419.922C282.096 419.922 254.396 420.95 254.396 423.181V423.178Z" fill="#32323F"/>
<path d="M259.883 256.34C259.883 256.34 263.438 251.693 262.757 250.873C262.075 250.053 259.886 248.533 257.541 247.918C256.818 247.729 256.223 247.219 255.71 246.562C254.926 245.561 254.339 244.218 253.781 243.156C253.123 241.9 252.513 241.032 251.692 241.563C250.532 242.312 253.252 248.005 244.235 242.982C243.148 242.378 241.622 243.721 242.593 245.729C243.966 248.576 245.645 248.681 246.85 249.414C248.269 250.276 249.674 250.355 250.595 250.523C252.516 250.87 253.418 252.066 255.281 253.522C257.21 255.028 258.294 255.43 259.886 256.34H259.883Z" fill="#EFAEA6"/>
<path d="M311.92 246.783L318.519 244.94C318.58 241.931 315.359 235.615 314.883 232.921C314.359 229.964 310.71 227.244 310.71 227.244L308.492 233.444L308.631 233.965C308.631 233.965 309.139 239.15 308.223 241.513C307.699 242.864 308.013 244.864 306.573 246.935C305.494 248.483 311.92 246.783 311.92 246.783Z" fill="#EFAEA6"/>
<path opacity="0.14" d="M308.679 235.073C308.679 235.073 308.95 238.411 308.529 240.374C312.629 242.243 314.805 237.593 313.771 236.437C313.124 235.714 310.766 234.029 310.766 234.029L308.682 235.07L308.679 235.073Z" fill="#1F1F3B"/>
<path d="M308.326 223.711C304.819 228.321 302.49 227.908 304.037 229.133C305.229 230.077 300.919 232.957 302.229 233.909C305.405 236.219 310.163 236.306 311.686 234.95C313.21 233.593 316.065 228.862 316.065 228.862L308.326 223.711Z" fill="#EFAEA6"/>
<path d="M310.858 228.211C309.747 227.643 309.545 227.875 309.071 227.028C308.597 226.182 310.534 225.985 309.35 224.847C308.166 223.709 306.753 222.631 307.69 220.933C309.047 218.478 310.768 220.168 311.802 221.259C312.468 221.961 313.855 220.316 315.365 221.448C316.552 222.337 315.905 222.986 316.926 223.827C317.541 224.334 319.594 224.071 320.065 225.596C320.938 228.424 318.075 229.236 318.557 231.951C319.12 235.116 312.084 236.304 311.918 235.473C311.726 234.506 313.915 233.1 313.642 232.238C313.229 230.939 312.589 231.651 311.355 231.88C310.037 232.125 308.542 231.184 310.495 230.311C312.447 229.438 311.858 228.726 310.852 228.211H310.858Z" fill="#1F1F3B"/>
<path d="M294.301 412.236C294.006 409.308 294.224 401.891 294.224 401.891L302.321 401.609L301.884 412.745L296.532 416.286L294.298 412.233L294.301 412.236Z" fill="white"/>
<path d="M293.646 409.832C292.964 409.311 291.441 411.141 291.128 412.371C290.409 415.186 281.376 415.543 279.766 415.798C278.934 415.929 277.598 420.066 281.731 420.048C285.307 420.032 296.756 420.024 300.669 419.982C301.487 419.974 302.2 419.441 302.398 418.679C303.1 415.961 303.187 409.585 302.095 409.498C300.624 409.827 296.246 411.821 293.643 409.834L293.646 409.832Z" fill="#1F1F3B"/>
<path d="M325.413 412.287C325.1 409.362 325.276 401.945 325.276 401.945L333.373 401.619L333.002 412.758L327.671 416.327L325.413 412.287Z" fill="white"/>
<path d="M324.521 408.962C323.65 409.017 323.808 409.832 323.505 411.062C322.813 413.882 312.53 415.712 310.925 415.977C310.096 416.117 308.796 420.264 312.93 420.211C316.503 420.167 327.955 420.062 331.868 419.985C332.686 419.97 333.396 419.431 333.586 418.669C334.265 415.946 334.517 408.468 333.425 408.387C331.957 408.728 328.492 408.705 324.523 408.96L324.521 408.962Z" fill="#1F1F3B"/>
<path d="M337.002 315.495C336.899 316.82 336.762 318.26 336.575 319.837C335.878 325.751 334.407 345.702 334.765 358.373C335.125 370.984 334.007 400.484 334.007 405.002C330.173 406.681 327.8 406.158 322.321 405.002C322.321 405.002 321.348 380.661 320.269 359.354C319.393 342.051 319.14 343.786 315.959 321.756C315.922 321.861 315.148 324.008 314.017 327.309C311.601 334.358 307.565 346.675 305.631 355.59C302.615 369.501 304.189 405.761 302.926 407.012C299.163 409.225 292.798 409.441 291.098 406.366C291.098 406.366 290.377 361.524 291.716 354.499C292.624 349.723 300.279 302.924 301.989 290.353C301.989 290.353 335.715 283.007 336.749 294.516C336.888 296.09 336.931 297.478 336.912 298.805C336.886 300.593 336.983 302.248 337.081 304.065C337.238 307.032 337.394 310.42 337.004 315.498L337.002 315.495Z" fill="#3B3B4D"/>
<path opacity="0.46" d="M318.929 315.428C318.929 315.428 318.929 315.436 318.923 315.446C318.862 315.407 318.836 315.391 318.828 315.383C318.844 315.383 318.929 315.428 318.929 315.428Z" fill="#1F1F3B"/>
<path opacity="0.54" d="M315.958 321.752C315.921 321.857 314.439 326.026 313.311 329.327L314.637 316.012C314.637 316.012 314.589 316.808 315.963 321.752H315.958Z" fill="#1F1F3B"/>
<path opacity="0.35" d="M337.198 312.037C336.919 311.974 323.917 309.207 322.162 302.707C322.162 302.707 333.464 303.677 337.079 304.063C337.237 307.031 337.313 310.361 337.2 312.037H337.198Z" fill="#1F1F3B"/>
<path d="M316.947 239.031C314.026 238.24 313.739 243.06 310.795 243.294C309.24 243.418 309.584 242.74 308.85 242.025C308.398 241.583 307.974 241.089 307.258 241.822C292.723 256.722 307.858 294.286 306.008 296.906C304.495 299.051 316.797 303.729 324.522 301.847C335.119 299.266 334.474 287.773 334.166 285.576C333.858 283.381 327.033 246.067 327.033 246.067C327.033 246.067 321.665 243.231 316.944 239.031H316.947Z" fill="white"/>
<path d="M258.19 246.7C259.325 244.929 280.899 265.543 284.193 263.316C289.998 259.4 295.487 245.297 307.254 241.822C307.254 241.822 307.615 244.317 306.773 250.819C305.66 259.413 310.504 265.527 309.522 275.924C308.251 289.373 311.567 303.109 308.251 306.139C306.32 307.906 303.641 308.245 300.407 304.894C295.321 299.616 298.665 282.303 299.129 278.19C299.31 276.589 299.707 274.432 300.047 272.198C300.468 269.417 301.273 266.11 299.873 265.096C299.471 264.804 291.235 274.757 284.664 274.637C279.77 274.547 255.128 255.424 254.422 254.64C252.42 252.412 258.188 246.7 258.188 246.7H258.19Z" fill="#0069A8"/>
<path d="M328.936 308.787C328.655 309.313 327.781 309.313 328.218 309.668C328.655 310.022 333.967 312.362 333.967 312.362C333.967 312.362 334.48 312.919 335.104 312.002C335.728 311.084 335.728 310.167 335.728 310.167L328.939 308.787H328.936Z" fill="#E79E9C"/>
<path d="M338.238 305.956C333.607 308.849 327.444 308.936 323.366 304.647C319.987 301.091 323.405 296.486 320.905 288.194C319.516 283.591 317.364 275.339 316.903 269.609C315.924 257.419 316.672 242.474 316.945 239.031C316.945 239.031 324.305 239.213 330.352 245.505C332.894 248.149 334.491 255.795 334.762 261.382C334.849 263.217 334.899 264.691 334.925 265.937C334.975 268.481 334.917 270.069 334.833 271.809C334.799 272.503 334.765 273.22 334.73 274.03C334.693 274.947 334.657 275.98 334.633 277.234C334.593 279.281 335.288 282.648 336.149 286.37C338.035 294.528 340.719 304.405 338.235 305.956H338.238Z" fill="#0069A8"/>
<path d="M321.702 253.591C337.945 280.192 338.834 276.667 339.239 281.02C339.645 285.372 328.498 308.93 328.498 308.93C328.498 308.93 335.193 312.659 335.935 311.516C336.677 310.372 351.012 284.021 350.441 278.355C349.815 272.112 332.348 247.879 330.29 245.498C328.235 243.117 319.357 242.095 319.452 246.355C319.547 250.615 321.702 253.591 321.702 253.591Z" fill="#0069A8"/>
<path opacity="0.18" d="M336.15 286.367C330.048 280.918 329.619 267.125 329.619 267.125L334.732 274.027C334.695 274.944 334.658 275.977 334.634 277.231C334.595 279.278 335.29 282.645 336.15 286.367Z" fill="#1F1F3B"/>
<path opacity="0.18" d="M337.126 290.547C336.708 292.476 329.143 307.67 329.143 307.67L336.505 287.879L337.129 290.544L337.126 290.547Z" fill="#1F1F3B"/>
<path opacity="0.18" d="M311.746 244.973C312.075 244.823 314.104 251.186 317.833 253.788C318.861 254.508 320.003 255.076 321.243 255.352C324.874 256.159 333.376 256.104 338.078 256.277C337.125 254.477 336.149 254.125 334.42 251.349C330.908 251.856 324.137 252.248 322.256 251.725C320.861 251.336 319.588 250.718 318.433 249.974C316.262 248.581 314.52 246.747 313.228 245.194C312.57 244.4 312.623 243.364 311.707 243.178C310.491 242.928 311.32 245.165 311.746 244.973Z" fill="#1F1F39"/>
<path d="M310.174 243.059C310.305 242.486 310.868 241.619 312.084 241.868C313 242.058 313.013 242.444 313.671 243.238C315.647 245.622 318.686 248.652 322.699 249.769C326.712 250.886 336.918 247.067 342.747 249.375C348.575 251.685 349.52 257.402 358.016 260.23C366.513 263.058 376.507 260.923 379.009 261.791C381.511 262.658 382.977 263.478 382.743 264.485C382.509 265.491 380.948 266.966 379.022 267.389C377.094 267.812 360.982 266.264 356.869 265.005C350.154 262.95 345.273 255.785 340.915 254.663C336.555 253.541 326.825 254.537 321.688 253.393C315.957 252.119 312.363 244.612 311.939 244.804C311.516 244.996 311.121 245.185 310.41 244.875C309.921 244.662 310.045 243.632 310.176 243.059H310.174Z" fill="#F4AD00"/>
<path d="M210.002 159.406C208.608 162.889 208.11 203.367 212.431 207.412C219.402 213.938 286.042 210.104 290.631 204.986C293.236 202.082 291.489 157.432 288.113 156.386C282.516 154.652 242.947 153.945 239.221 156.736C236.147 159.038 233.237 159.104 228.861 157.432C222.459 154.991 210.934 157.083 210.002 159.409V159.406Z" fill="#FF7900"/>
<path d="M276.593 204.623C283.792 211.454 295.373 223.066 294.399 223.938C292.836 225.339 260.395 206.421 260.395 206.421L276.593 204.623Z" fill="#FF7900"/>
<path d="M378.028 80.6348C365.266 96.9959 349.912 117.163 352.141 117.163C358.251 117.163 378.56 117.278 378.56 117.278L378.028 80.6348Z" fill="#A7A9AC"/>
<path d="M430.432 45.1992C417.67 61.5604 402.317 81.7273 404.545 81.7273C410.655 81.7273 430.964 81.843 430.964 81.843L430.432 45.1992Z" fill="#A7A9AC"/>
<path d="M321.62 118.195C308.858 134.556 293.504 154.723 295.733 154.723C301.843 154.723 322.151 154.839 322.151 154.839L321.62 118.195Z" fill="#A7A9AC"/>
<path d="M377.542 80.7609C374.016 84.5114 376.163 117.336 378.073 117.405C385.528 117.665 438.199 119.058 438.544 116.133C439.788 105.564 439.578 79.2969 436.475 79.2128C427.863 78.9736 380.644 77.4623 377.542 80.7609Z" fill="#D1D3D4"/>
<path d="M321.133 118.321C317.607 122.072 319.755 154.897 321.665 154.965C329.119 155.225 381.791 156.618 382.135 153.693C383.38 143.125 383.17 116.857 380.067 116.773C371.455 116.534 324.236 115.023 321.133 118.321Z" fill="#D1D3D4"/>
<path d="M430.288 45.2179C426.762 48.9685 428.909 81.7933 430.819 81.8616C438.274 82.1218 490.945 83.5148 491.29 80.5895C492.534 70.0211 492.324 43.7539 489.221 43.6698C480.609 43.4306 433.39 41.9194 430.288 45.2179Z" fill="#D1D3D4"/>
</g>
<defs>
<clipPath id="clip0_923_4213">
<rect width="492" height="428" fill="white"/>
</clipPath>
</defs>
</svg>
