<svg width="20" height="19" viewBox="0 0 20 19" fill="none" xmlns="http://www.w3.org/2000/svg">
<path d="M10 18.6742L8.55 17.3742C6.86667 15.8576 5.475 14.5492 4.375 13.4492C3.275 12.3492 2.4 11.3617 1.75 10.4867C1.1 9.61172 0.645833 8.80755 0.3875 8.07422C0.129167 7.34089 0 6.59089 0 5.82422C0 4.25755 0.525 2.94922 1.575 1.89922C2.625 0.849219 3.93333 0.324219 5.5 0.324219C6.36667 0.324219 7.19167 0.507552 7.975 0.874219C8.75833 1.24089 9.43333 1.75755 10 2.42422C10.5667 1.75755 11.2417 1.24089 12.025 0.874219C12.8083 0.507552 13.6333 0.324219 14.5 0.324219C16.0667 0.324219 17.375 0.849219 18.425 1.89922C19.475 2.94922 20 4.25755 20 5.82422C20 6.59089 19.8708 7.34089 19.6125 8.07422C19.3542 8.80755 18.9 9.61172 18.25 10.4867C17.6 11.3617 16.725 12.3492 15.625 13.4492C14.525 14.5492 13.1333 15.8576 11.45 17.3742L10 18.6742ZM10 15.9742C11.6 14.5409 12.9167 13.3117 13.95 12.2867C14.9833 11.2617 15.8 10.3701 16.4 9.61172C17 8.85339 17.4167 8.17839 17.65 7.58672C17.8833 6.99505 18 6.40755 18 5.82422C18 4.82422 17.6667 3.99089 17 3.32422C16.3333 2.65755 15.5 2.32422 14.5 2.32422C13.7167 2.32422 12.9917 2.54505 12.325 2.98672C11.6583 3.42839 11.2 3.99089 10.95 4.67422H9.05C8.8 3.99089 8.34167 3.42839 7.675 2.98672C7.00833 2.54505 6.28333 2.32422 5.5 2.32422C4.5 2.32422 3.66667 2.65755 3 3.32422C2.33333 3.99089 2 4.82422 2 5.82422C2 6.40755 2.11667 6.99505 2.35 7.58672C2.58333 8.17839 3 8.85339 3.6 9.61172C4.2 10.3701 5.01667 11.2617 6.05 12.2867C7.08333 13.3117 8.4 14.5409 10 15.9742Z" fill="#F97316"/>
</svg>
