<svg width="25" height="25" viewBox="0 0 25 25" fill="none" xmlns="http://www.w3.org/2000/svg">
<path d="M8.94091 6.26165C9.31422 4.67963 10.766 3.5 12.5 3.5C14.234 3.5 15.6858 4.67963 16.0591 6.26165L16.2151 6.29339C18.6003 6.77888 20.4998 8.53831 21.1215 10.8381C21.6262 12.7049 21.6262 14.6676 21.1215 16.5344C20.4998 18.8342 18.6003 20.5936 16.2151 21.0791L15.7593 21.1718C13.6095 21.6094 11.3905 21.6094 9.24072 21.1718L8.78493 21.0791C6.39969 20.5936 4.5002 18.8342 3.8785 16.5344C3.37383 14.6676 3.37383 12.7049 3.8785 10.838C4.5002 8.5383 6.39968 6.77888 8.78493 6.29339L8.94091 6.26165Z" stroke="#F29E3A" stroke-width="1.5" stroke-linejoin="round"/>
<path d="M10 13.5C10 12.1193 11.1193 11 12.5 11C13.8807 11 15 12.1193 15 13.5C15 14.8807 13.8807 16 12.5 16C11.1193 16 10 14.8807 10 13.5Z" stroke="#F29E3A" stroke-width="1.5"/>
</svg>
