<svg width="24" height="24" viewBox="0 0 24 24" fill="none" xmlns="http://www.w3.org/2000/svg">
<path d="M20.6471 8.95043C19.9956 6.17301 17.827 4.00437 15.0496 3.35288C13.0437 2.88237 10.9563 2.88237 8.95043 3.35288C6.173 4.00437 4.00437 6.17301 3.35287 8.95044C2.88237 10.9563 2.88237 13.0437 3.35287 15.0496C4.00437 17.827 6.17301 19.9956 8.95043 20.6471C10.9563 21.1176 13.0437 21.1176 15.0496 20.6471C17.827 19.9956 19.9956 17.827 20.6471 15.0496C21.1176 13.0437 21.1176 10.9563 20.6471 8.95043Z" fill="#EA526F" fill-opacity="0.15" stroke="#EA526F" stroke-width="1.5"/>
<path d="M8.5 12L15.5 12M15.5 12L13 14.5M15.5 12L13 9.5" stroke="#EA526F" stroke-width="1.5" stroke-linecap="round" stroke-linejoin="round"/>
</svg>
