<svg width="34" height="34" viewBox="0 0 34 34" fill="none" xmlns="http://www.w3.org/2000/svg">
<path d="M4 24.1115C4 21.6984 5.69732 19.643 8.00404 19.2627L8.21182 19.2284C10.0589 18.9239 11.9411 18.9239 13.7882 19.2284L13.996 19.2627C16.3027 19.643 18 21.6984 18 24.1115C18 25.1545 17.1815 26 16.1719 26H5.82813C4.81848 26 4 25.1545 4 24.1115Z" fill="white"/>
<path d="M15.0834 11.9375C15.0834 14.1121 13.2552 15.875 11 15.875C8.74486 15.875 6.91669 14.1121 6.91669 11.9375C6.91669 9.76288 8.74486 8 11 8C13.2552 8 15.0834 9.76288 15.0834 11.9375Z" fill="white"/>
<path d="M4 24.1115C4 21.6984 5.69732 19.643 8.00404 19.2627L8.21182 19.2284C10.0589 18.9239 11.9411 18.9239 13.7882 19.2284L13.996 19.2627C16.3027 19.643 18 21.6984 18 24.1115C18 25.1545 17.1815 26 16.1719 26H5.82813C4.81848 26 4 25.1545 4 24.1115Z" stroke="#3A8EEF" stroke-width="1.5"/>
<path d="M15.0834 11.9375C15.0834 14.1121 13.2552 15.875 11 15.875C8.74486 15.875 6.91669 14.1121 6.91669 11.9375C6.91669 9.76288 8.74486 8 11 8C13.2552 8 15.0834 9.76288 15.0834 11.9375Z" stroke="#3A8EEF" stroke-width="1.5"/>
<path d="M18 18.4623H28.1909C29.6066 18.4623 30.472 16.7739 29.7261 15.4671L29.2365 14.6092C28.7547 13.765 28.7547 12.6973 29.2365 11.8531L29.7261 10.9952C30.472 9.68842 29.6066 8 28.1909 8L18 8L18 18.4623ZM18 18.4623L18 24" stroke="#3A8EEF" stroke-width="1.5" stroke-linecap="round" stroke-linejoin="round"/>
</svg>
