<svg width="24" height="24" viewBox="0 0 24 24" fill="none" xmlns="http://www.w3.org/2000/svg">
<path d="M20.703 5.2338C20.4776 4.27279 19.7272 3.52243 18.7662 3.29701C17.9334 3.10165 17.0666 3.10165 16.2338 3.29701C15.2728 3.52243 14.5224 4.27279 14.297 5.2338C14.1017 6.06663 14.1017 6.93337 14.297 7.7662C14.5224 8.72721 15.2728 9.47757 16.2338 9.70299C17.0666 9.89835 17.9334 9.89835 18.7662 9.70299C19.7272 9.47757 20.4776 8.72721 20.703 7.7662C20.8983 6.93337 20.8983 6.06663 20.703 5.2338Z" fill="#757575" fill-opacity="0.15" stroke="#757575" stroke-width="1.5"/>
<path d="M20.703 16.2338C20.4776 15.2728 19.7272 14.5224 18.7662 14.297C17.9334 14.1017 17.0666 14.1017 16.2338 14.297C15.2728 14.5224 14.5224 15.2728 14.297 16.2338C14.1017 17.0666 14.1017 17.9334 14.297 18.7662C14.5224 19.7272 15.2728 20.4776 16.2338 20.703C17.0666 20.8983 17.9334 20.8983 18.7662 20.703C19.7272 20.4776 20.4776 19.7272 20.703 18.7662C20.8983 17.9334 20.8983 17.0666 20.703 16.2338Z" fill="#757575" fill-opacity="0.15" stroke="#757575" stroke-width="1.5"/>
<path d="M9.70299 5.2338C9.47757 4.27279 8.72721 3.52243 7.7662 3.29701C6.93337 3.10165 6.06663 3.10165 5.2338 3.29701C4.27279 3.52243 3.52243 4.27279 3.29701 5.2338C3.10165 6.06663 3.10165 6.93337 3.29701 7.7662C3.52243 8.72721 4.27279 9.47757 5.2338 9.70299C6.06663 9.89835 6.93337 9.89835 7.7662 9.70299C8.72721 9.47757 9.47757 8.72721 9.70299 7.7662C9.89834 6.93337 9.89834 6.06663 9.70299 5.2338Z" fill="#757575" fill-opacity="0.15" stroke="#757575" stroke-width="1.5"/>
<path d="M9.70299 16.2338C9.47757 15.2728 8.72721 14.5224 7.7662 14.297C6.93337 14.1017 6.06663 14.1017 5.2338 14.297C4.27279 14.5224 3.52243 15.2728 3.29701 16.2338C3.10165 17.0666 3.10165 17.9334 3.29701 18.7662C3.52243 19.7272 4.27279 20.4776 5.2338 20.703C6.06663 20.8983 6.93337 20.8983 7.7662 20.703C8.72721 20.4776 9.47757 19.7272 9.70299 18.7662C9.89834 17.9334 9.89834 17.0666 9.70299 16.2338Z" fill="#757575" fill-opacity="0.15" stroke="#757575" stroke-width="1.5"/>
</svg>
