<svg width="24" height="25" viewBox="0 0 24 25" fill="none" xmlns="http://www.w3.org/2000/svg">
<path d="M7.92563 6.89211C5.62654 7.43141 3.8314 9.22655 3.2921 11.5256C2.90263 13.186 2.90263 14.914 3.2921 16.5744C3.8314 18.8735 5.62655 20.6686 7.92564 21.2079C9.58601 21.5974 11.314 21.5974 12.9744 21.2079C15.2734 20.6686 17.0686 18.8735 17.6079 16.5744M7.92563 6.89211C9.58601 6.50264 11.314 6.50264 12.9744 6.89211C15.2734 7.43141 17.0686 9.22656 17.6079 11.5256C17.9974 13.186 17.9974 14.914 17.6079 16.5744M7.92563 6.89211C7.52772 6.98545 7.14491 7.11641 6.78108 7.28108C7.56789 5.54278 9.12447 4.23806 11.0256 3.7921C12.686 3.40263 14.414 3.40263 16.0744 3.7921C18.3735 4.3314 20.1686 6.12655 20.7079 8.42563C21.0974 10.086 21.0974 11.814 20.7079 13.4744C20.2619 15.3755 18.9572 16.9321 17.2189 17.7189C17.3836 17.3551 17.5145 16.9723 17.6079 16.5744" stroke="#F29E3A" stroke-width="1.5"/>
<path d="M7.5 12.5L9.3906 13.7604C10.0624 14.2083 10.9376 14.2083 11.6094 13.7604L13.5 12.5" stroke="#F29E3A" stroke-width="1.5" stroke-linecap="round"/>
</svg>
