<svg width="24" height="25" viewBox="0 0 24 25" fill="none" xmlns="http://www.w3.org/2000/svg">
<path d="M4.30225 7.0004L10.0825 11.13C11.2295 11.9496 12.7705 11.9496 13.9175 11.13L19.6977 7.0004M2.88539 15.6513C2.37154 13.5819 2.37154 11.4181 2.88539 9.34875C3.55805 6.63984 5.70602 4.54534 8.43056 3.94162L8.88443 3.84105C10.9366 3.38632 13.0634 3.38632 15.1156 3.84105L15.5694 3.94162C18.294 4.54534 20.442 6.63984 21.1146 9.34876C21.6285 11.4182 21.6285 13.5819 21.1146 15.6512C20.442 18.3602 18.294 20.4547 15.5694 21.0584L15.1156 21.159C13.0634 21.6137 10.9366 21.6137 8.88443 21.159L8.43055 21.0584C5.70601 20.4547 3.55805 18.3602 2.88539 15.6513Z" stroke="#F29E3A" stroke-width="1.5" stroke-linecap="round"/>
</svg>
