<svg width="24" height="25" viewBox="0 0 24 25" fill="none" xmlns="http://www.w3.org/2000/svg">
<path d="M15.1189 10.2168C15.196 10.0018 15.504 10.0018 15.5811 10.2168L15.7921 10.8049C15.8168 10.8737 15.8716 10.9279 15.9413 10.9523L16.5367 11.1606C16.7544 11.2368 16.7544 11.541 16.5367 11.6171L15.9413 11.8255C15.8716 11.8499 15.8168 11.9041 15.7921 11.9729L15.5811 12.5609C15.504 12.776 15.196 12.776 15.1189 12.5609L14.9079 11.9729C14.8832 11.9041 14.8284 11.8499 14.7587 11.8255L14.1633 11.6171C13.9456 11.541 13.9456 11.2368 14.1633 11.1606L14.7587 10.9523C14.8284 10.9279 14.8832 10.8737 14.9079 10.8049L15.1189 10.2168Z" fill="#F29E3A"/>
<path d="M17.4459 12.8297C17.4974 12.6864 17.7026 12.6864 17.7541 12.8297L17.8947 13.2218C17.9112 13.2677 17.9477 13.3038 17.9942 13.32L18.3911 13.4589C18.5363 13.5097 18.5363 13.7125 18.3911 13.7633L17.9942 13.9022C17.9477 13.9185 17.9112 13.9546 17.8947 14.0004L17.7541 14.3925C17.7026 14.5358 17.4974 14.5358 17.4459 14.3925L17.3053 14.0004C17.2888 13.9546 17.2523 13.9185 17.2058 13.9022L16.8089 13.7633C16.6637 13.7125 16.6637 13.5097 16.8089 13.4589L17.2058 13.32C17.2523 13.3038 17.2888 13.2677 17.3053 13.2218L17.4459 12.8297Z" fill="#F29E3A"/>
<path d="M18.6154 6.73347C18.7271 6.42218 19.1729 6.42218 19.2846 6.73347L19.6673 7.80041C19.7031 7.90005 19.7824 7.97844 19.8833 8.01375L20.9636 8.3918C21.2788 8.5021 21.2788 8.94234 20.9636 9.05264L19.8833 9.4307C19.7824 9.466 19.7031 9.54439 19.6673 9.64404L19.2846 10.711C19.1729 11.0223 18.7271 11.0223 18.6154 10.711L18.2327 9.64404C18.1969 9.54439 18.1176 9.466 18.0167 9.4307L16.9364 9.05264C16.6212 8.94234 16.6212 8.5021 16.9364 8.3918L18.0167 8.01375C18.1176 7.97844 18.1969 7.90005 18.2327 7.80041L18.6154 6.73347Z" fill="#F29E3A"/>
<path d="M3 19.6115C3 17.1984 4.69732 15.143 7.00404 14.7627L7.21182 14.7284C9.05892 14.4239 10.9411 14.4239 12.7882 14.7284L12.996 14.7627C15.3027 15.143 17 17.1984 17 19.6115C17 20.6545 16.1815 21.5 15.1719 21.5H4.82813C3.81848 21.5 3 20.6545 3 19.6115Z" stroke="#F29E3A" stroke-width="1.5"/>
<path d="M14.0834 7.4375C14.0834 9.61212 12.2552 11.375 10 11.375C7.74486 11.375 5.91669 9.61212 5.91669 7.4375C5.91669 5.26288 7.74486 3.5 10 3.5C12.2552 3.5 14.0834 5.26288 14.0834 7.4375Z" stroke="#F29E3A" stroke-width="1.5"/>
</svg>
