<svg width="24" height="24" viewBox="0 0 24 24" fill="none" xmlns="http://www.w3.org/2000/svg">
<path d="M13.3057 1.18138C13.0648 0.681429 12.5558 0.363281 11.9967 0.363281C11.4377 0.363281 10.9332 0.681429 10.6878 1.18138L7.76537 7.19437L1.2388 8.1579C0.693401 8.23971 0.238904 8.62149 0.0707399 9.14416C-0.0974239 9.66683 0.038925 10.244 0.429792 10.6304L5.16565 15.3162L4.04759 21.9382C3.95669 22.4836 4.18394 23.0381 4.63389 23.3608C5.08384 23.6835 5.67923 23.7244 6.17009 23.4654L12.0013 20.352L17.8325 23.4654C18.3233 23.7244 18.9187 23.6881 19.3687 23.3608C19.8186 23.0336 20.0459 22.4836 19.955 21.9382L18.8324 15.3162L23.5682 10.6304C23.9591 10.244 24.1 9.66683 23.9273 9.14416C23.7546 8.62149 23.3046 8.23971 22.7592 8.1579L16.2281 7.19437L13.3057 1.18138Z" fill="white"/>
</svg>
