<svg width="24" height="25" viewBox="0 0 24 25" fill="none" xmlns="http://www.w3.org/2000/svg">
<path d="M15.96 18.14L17.64 16.46L13.2 12.02V6.5H10.8V12.98L15.96 18.14ZM12 24.5C10.34 24.5 8.78 24.185 7.32 23.555C5.86 22.925 4.59 22.07 3.51 20.99C2.43 19.91 1.575 18.64 0.945 17.18C0.315 15.72 0 14.16 0 12.5C0 10.84 0.315 9.28 0.945 7.82C1.575 6.36 2.43 5.09 3.51 4.01C4.59 2.93 5.86 2.075 7.32 1.445C8.78 0.815 10.34 0.5 12 0.5C13.66 0.5 15.22 0.815 16.68 1.445C18.14 2.075 19.41 2.93 20.49 4.01C21.57 5.09 22.425 6.36 23.055 7.82C23.685 9.28 24 10.84 24 12.5C24 14.16 23.685 15.72 23.055 17.18C22.425 18.64 21.57 19.91 20.49 20.99C19.41 22.07 18.14 22.925 16.68 23.555C15.22 24.185 13.66 24.5 12 24.5ZM12 22.1C14.66 22.1 16.925 21.165 18.795 19.295C20.665 17.425 21.6 15.16 21.6 12.5C21.6 9.84 20.665 7.575 18.795 5.705C16.925 3.835 14.66 2.9 12 2.9C9.34 2.9 7.075 3.835 5.205 5.705C3.335 7.575 2.4 9.84 2.4 12.5C2.4 15.16 3.335 17.425 5.205 19.295C7.075 21.165 9.34 22.1 12 22.1Z" fill="#F97316"/>
</svg>
